<?xml version="1.0" encoding="UTF-8"?>
<svg id="Layer_1" xmlns="http://www.w3.org/2000/svg" viewBox="0 0 242 40">
  <defs>
    <style>
      .cls-1 {
        fill: #191c1f;
      }
    </style>
  </defs>
  <path d="M19.56,26.59s-.03.02-.05.03c1,.43,1.67.75,1.76.8.2-.51.11-1.35.06-1.69-.58.29-1.17.57-1.77.86Z"/>
  <path d="M21.4,25.7l.14.17c.48.31,1.06.46,1.66.36,1.19-.2,2-1.26,1.95-2.43-1.2.64-2.46,1.27-3.75,1.9h0Z"/>
  <path class="cls-1" d="M19.99,0C8.95,0,0,8.95,0,20s8.95,20,19.99,20,19.99-8.95,19.99-20S31.03,0,19.99,0ZM7.79,13.98c.89.37,1.52,1.12,1.77,1.98,1.21.19,2.15,1.2,2.21,2.47.05,1.11-.6,2.08-1.56,2.5.46-.46.74-1.1.71-1.8-.04-.87-.54-1.6-1.26-1.99-.03.28-.1.56-.21.84-.5,1.2-1.67,1.91-2.89,1.89.72-.26,1.33-.8,1.64-1.56.59-1.43-.09-3.07-1.52-3.67-.76-.31-1.58-.27-2.26.06.85-.88,2.17-1.21,3.38-.71h0ZM5.24,26.91c-.06-.1-.48-.96-.79-1.73.31.03,1.1-.2,1.1-.2,1.24-.57,1.83-2.02,1.31-3.3-.29-.7-.84-1.2-1.5-1.44.85-.01,1.67.36,2.21,1.02.09-.04.19-.08.29-.11,1.38-.41,2.84.38,3.25,1.76.31,1.06-.08,2.16-.9,2.81.34-.56.45-1.25.25-1.92-.32-1.08-1.34-1.76-2.42-1.7.42,1.15.03,2.42-.9,3.15-.03.03-.07.07-.14.11,0,0,0,0-.01,0-.03.02-.07.04-.1.06-1.29.76-1.59,1.6-1.65,1.5h0ZM5.83,27.95l1.29-2.42c.22.27-.2,1.25-.14,1.46.06.21,2.33-.25,2.33-.25l-3.39,1.35s-.09-.15-.09-.15ZM6.97,29.55l-.49-.65c.29-.46,2.52-1.31,3.14-1.53-1.73.82-2.65,2.18-2.65,2.18h0ZM19.49,27.22c4.06,1.6,3.42,5.33,3.11,5.56-1.13-4.1-3.11-5.56-3.11-5.56ZM24.99,30.38c-.32.82-1.78,5.12-1.78,5.12l-.86.14c.02-.7.12-.96.96-4,.85-3.04,4.7-3.66,4.02-3.42-.69.24-2.02,1.33-2.33,2.15h0ZM27.06,27.72c-.79.31-2.09.84-2.88,1.16.25-.42,1.14-2.14,1.14-2.14.05.2,0,.57-.1,1.22.6.06,1.27-.17,1.84-.24h0ZM28.85,30.6c-.89-.04-1.62-.62-1.89-1.41.34.4.83.66,1.39.68,1.06.04,1.95-.78,1.99-1.84.02-.56-.2-1.08-.57-1.44.76.33,1.29,1.11,1.25,2-.04,1.15-1.02,2.05-2.17,2.01ZM31.81,25.07c-.34.82-1.14,1.31-1.97,1.29.49-.18.9-.55,1.12-1.07.4-.98-.06-2.1-1.04-2.51-.52-.21-1.08-.18-1.55.04.58-.6,1.49-.83,2.31-.49,1.06.44,1.57,1.66,1.13,2.73h0ZM32.46,18.57c-1.53,1.65-3.45,3.02-5.62,4.29.68.24,1.24.79,1.47,1.54.29.96-.06,1.96-.8,2.55.3-.51.4-1.13.21-1.74-.25-.81-.92-1.36-1.7-1.5.03.1.06.2.07.31.05.32.04.63-.02.92,0,0,0,0,0,0,0,.03-.01.05-.02.08,0,.01,0,.03,0,.04-.18.85-.96,1.69-1.56,2.03-.63.35-1.59,2.44-1.59,2.15,0-.29-.07-1.78-.31-2.13-.24-.35-.34-.25-.84-.54,0,.29.13,1.28.18,1.75-.36-.26-2.09-1.33-2.54-1.61-2.28,1.5-3.3,7.99-3.65,8.58-.57-.17-.73-.21-1.32-.41.11-.94.81-5.85.37-6.06-.24-.11-.64,0-1.01.09-.38.76-1.14,1.32-2.05,1.4-1.08.09-2.05-.5-2.51-1.41.47.43,1.11.67,1.78.61,1.29-.11,2.24-1.25,2.12-2.53-.06-.68-.41-1.27-.91-1.65.66.19,1.21.65,1.53,1.26,1.96-.71,11.54-4.5,18.55-9.11-10.23,3.74-15.46,4.38-16.82,4.48.11.5.08,1.03-.12,1.54-.42,1-1.39,1.59-2.41,1.57.6-.22,1.1-.67,1.37-1.3.49-1.19-.07-2.56-1.27-3.05-.63-.26-1.31-.22-1.89.05.71-.74,1.81-1.01,2.81-.59.33.14.62.34.85.58,2.53-.54,9.21-4.08,11.82-6.94-1.76.59-7.73,2.14-11.91,2.26,2.52-1.1,6.69-3.34,8.5-5.67-.79,0-2.54.82-6.24.97,2.71-2.63,3.79-8.79,3.79-8.79.9,2.28.23,4.93-.4,6.64,2.54.56,4.78-.06,6.21-.7-.57,1.17-3,4.13-5.41,5.5,1.03.29,5-.94,9.19-1.89-1.22,1.55-6.12,6.01-10.13,7.56,4.55-.98,10.71-2.7,15.01-4.29-.71.92-1.38,1.62-2.82,3.18h0Z"/>
  <g>
    <path class="cls-1" d="M68.63,10.54v19.13h-3.84v-12.45l-5.12,12.45h-2.9l-5.15-12.45v12.45h-3.84V10.54h4.36l6.08,14.23,6.08-14.23h4.33Z"/>
    <path class="cls-1" d="M86.41,23.23h-11.1c.09,1.1.47,1.96,1.15,2.58.68.62,1.51.93,2.49.93,1.42,0,2.44-.61,3.04-1.84h4.14c-.44,1.46-1.28,2.66-2.52,3.6-1.24.94-2.77,1.41-4.58,1.41-1.46,0-2.77-.32-3.93-.97-1.16-.65-2.06-1.57-2.71-2.76-.65-1.19-.97-2.56-.97-4.11s.32-2.95.96-4.14c.64-1.19,1.53-2.1,2.68-2.74,1.15-.64,2.47-.96,3.97-.96s2.73.31,3.88.93c1.14.62,2.03,1.5,2.66,2.65.63,1.14.95,2.45.95,3.93,0,.55-.04,1.04-.11,1.48ZM82.55,20.66c-.02-.99-.37-1.78-1.07-2.37-.69-.59-1.54-.89-2.55-.89-.95,0-1.75.29-2.4.86-.65.58-1.05,1.38-1.19,2.4h7.21Z"/>
    <path class="cls-1" d="M93.78,17.64v7.35c0,.51.12.88.37,1.11.25.23.66.34,1.25.34h1.78v3.23h-2.41c-3.23,0-4.85-1.57-4.85-4.71v-7.32h-1.81v-3.15h1.81v-3.76h3.86v3.76h3.4v3.15h-3.4Z"/>
    <path class="cls-1" d="M99.88,17.94c.61-1.19,1.44-2.1,2.49-2.74,1.05-.64,2.22-.96,3.52-.96,1.13,0,2.12.23,2.97.69.85.46,1.53,1.03,2.04,1.73v-2.17h3.86v15.19h-3.86v-2.22c-.49.71-1.17,1.3-2.04,1.77-.87.47-1.87.7-3,.7-1.28,0-2.44-.33-3.49-.99-1.05-.66-1.88-1.59-2.49-2.78-.61-1.2-.92-2.57-.92-4.13s.31-2.9.92-4.08ZM110.36,19.68c-.37-.67-.86-1.18-1.48-1.54-.62-.36-1.29-.53-2-.53s-1.37.17-1.97.52c-.6.35-1.09.85-1.47,1.52-.37.67-.56,1.46-.56,2.37s.19,1.71.56,2.4c.37.69.87,1.21,1.48,1.58.61.37,1.26.55,1.96.55s1.38-.18,2-.53c.62-.36,1.11-.87,1.48-1.54.37-.67.55-1.47.55-2.4s-.18-1.73-.55-2.4Z"/>
    <path class="cls-1" d="M132.03,21.48c.69.88,1.04,1.88,1.04,3.02,0,1.02-.25,1.92-.75,2.7-.5.78-1.23,1.38-2.18,1.82-.95.44-2.07.66-3.37.66h-8.25V10.54h7.89c1.3,0,2.42.21,3.36.63.94.42,1.65,1.01,2.14,1.75.48.75.73,1.6.73,2.55,0,1.11-.3,2.05-.89,2.8-.59.75-1.38,1.28-2.37,1.59,1.08.2,1.96.74,2.66,1.62ZM122.36,18.44h3.51c.91,0,1.62-.21,2.11-.62.49-.41.74-1,.74-1.77s-.25-1.36-.74-1.78c-.49-.42-1.2-.63-2.11-.63h-3.51v4.8ZM128.4,25.89c.52-.44.78-1.06.78-1.86s-.27-1.47-.82-1.93c-.55-.47-1.29-.7-2.22-.7h-3.78v5.15h3.86c.93,0,1.66-.22,2.18-.66Z"/>
    <path class="cls-1" d="M139.97,9.39v20.29h-3.84V9.39h3.84Z"/>
    <path class="cls-1" d="M158.08,14.49v15.19h-3.86v-1.92c-.49.66-1.14,1.17-1.93,1.55s-1.66.56-2.59.56c-1.19,0-2.24-.25-3.15-.75-.91-.5-1.63-1.24-2.15-2.22-.52-.98-.78-2.14-.78-3.5v-8.91h3.84v8.36c0,1.21.3,2.13.9,2.78.6.65,1.42.97,2.47.97s1.89-.32,2.49-.97c.6-.65.9-1.58.9-2.78v-8.36h3.86Z"/>
    <path class="cls-1" d="M175.86,23.23h-11.1c.09,1.1.47,1.96,1.15,2.58.68.62,1.51.93,2.49.93,1.42,0,2.44-.61,3.04-1.84h4.14c-.44,1.46-1.28,2.66-2.52,3.6-1.24.94-2.77,1.41-4.58,1.41-1.46,0-2.77-.32-3.93-.97-1.16-.65-2.06-1.57-2.71-2.76-.65-1.19-.97-2.56-.97-4.11s.32-2.95.96-4.14c.64-1.19,1.53-2.1,2.68-2.74,1.15-.64,2.47-.96,3.97-.96s2.73.31,3.88.93c1.14.62,2.03,1.5,2.66,2.65.63,1.14.95,2.45.95,3.93,0,.55-.04,1.04-.11,1.48ZM172,20.66c-.02-.99-.37-1.78-1.07-2.37-.69-.59-1.54-.89-2.55-.89-.95,0-1.75.29-2.4.86-.65.58-1.05,1.38-1.19,2.4h7.21Z"/>
    <path class="cls-1" d="M184.64,14.94c.87-.47,1.86-.7,2.97-.7,1.3,0,2.47.32,3.52.96,1.05.64,1.88,1.55,2.49,2.73.61,1.18.92,2.55.92,4.1s-.31,2.93-.92,4.13c-.61,1.2-1.44,2.12-2.49,2.78-1.05.66-2.22.99-3.52.99-1.11,0-2.1-.23-2.95-.69s-1.54-1.03-2.07-1.73v9.4h-3.84V14.49h3.84v2.19c.49-.69,1.17-1.27,2.04-1.74ZM190.07,19.66c-.37-.67-.87-1.17-1.48-1.52-.61-.35-1.27-.52-1.99-.52s-1.35.18-1.96.53c-.61.36-1.11.87-1.48,1.55-.37.68-.56,1.47-.56,2.38s.19,1.71.56,2.38c.37.68.87,1.19,1.48,1.55.61.36,1.26.53,1.96.53s1.37-.18,1.99-.55c.61-.37,1.1-.89,1.48-1.56.37-.68.56-1.48.56-2.41s-.19-1.7-.56-2.37Z"/>
    <path class="cls-1" d="M203.11,14.96c.79-.46,1.7-.69,2.73-.69v4.03h-1.01c-1.21,0-2.11.28-2.73.85-.61.57-.92,1.55-.92,2.96v7.57h-3.84v-15.19h3.84v2.36c.49-.8,1.14-1.43,1.93-1.89Z"/>
    <path class="cls-1" d="M208.67,12.04c-.45-.43-.67-.96-.67-1.6s.22-1.17.67-1.6c.45-.43,1.01-.64,1.68-.64s1.24.22,1.68.64c.45.43.67.96.67,1.6s-.22,1.17-.67,1.6c-.45.43-1.01.64-1.68.64s-1.24-.21-1.68-.64ZM212.25,14.49v15.19h-3.84v-15.19h3.84Z"/>
    <path class="cls-1" d="M228.82,15.98c1.11,1.14,1.67,2.74,1.67,4.78v8.91h-3.84v-8.39c0-1.21-.3-2.13-.9-2.78-.6-.65-1.42-.97-2.47-.97s-1.9.32-2.51.97c-.61.65-.92,1.58-.92,2.78v8.39h-3.84v-15.19h3.84v1.89c.51-.66,1.16-1.17,1.96-1.55.79-.37,1.67-.56,2.62-.56,1.81,0,3.27.57,4.38,1.71Z"/>
    <path class="cls-1" d="M238.6,17.64v7.35c0,.51.12.88.37,1.11.25.23.66.34,1.25.34h1.78v3.23h-2.41c-3.23,0-4.85-1.57-4.85-4.71v-7.32h-1.81v-3.15h1.81v-3.76h3.86v3.76h3.4v3.15h-3.4Z"/>
  </g>
</svg>